<svg width="24" height="24" viewBox="0 0 24 24" fill="none" xmlns="http://www.w3.org/2000/svg">
<path d="M21 15.004V6.49616C21 6.20492 20.7639 5.96881 20.4727 5.96881H17.5247L18.3267 4.84606C18.4917 4.61502 18.4562 4.2894 18.2332 4.11365C17.9951 3.92599 17.6514 3.977 17.4771 4.22091L16.5 5.58891L15.5229 4.22091C15.3536 3.98389 15.0242 3.92894 14.7872 4.09832C14.5502 4.2676 14.4953 4.59698 14.6646 4.83397L15.4753 5.96885H3.52734C3.23611 5.96885 3 6.20496 3 6.49619V15.004C3 15.2952 3.23611 15.5313 3.52734 15.5313H20.4727C20.7639 15.5313 21 15.2952 21 15.004ZM12.9493 8.81148C13.2239 8.71434 13.5252 8.85834 13.6222 9.13298L14.5714 11.8189L15.4751 9.14708C15.5684 8.87117 15.8676 8.72323 16.1436 8.8165C16.4195 8.90981 16.5675 9.20909 16.4741 9.485L15.1656 13.3538C15.0799 13.6056 14.844 13.7735 14.5804 13.7735C14.3193 13.7735 14.0857 13.6088 13.9982 13.3625L12.6278 9.4844C12.5308 9.2098 12.6747 8.90847 12.9493 8.81148ZM8.0625 8.78131H10.875C11.1662 8.78131 11.4023 9.01742 11.4023 9.30866C11.4023 9.59989 11.1662 9.836 10.875 9.836H9.99609V13.2462C9.99609 13.5374 9.75998 13.7735 9.46875 13.7735C9.17752 13.7735 8.94141 13.5374 8.94141 13.2462V9.836H8.0625C7.77127 9.836 7.53516 9.59989 7.53516 9.30866C7.53516 9.01742 7.77127 8.78131 8.0625 8.78131Z" fill="url(#paint0_linear)"/>
<path d="M18.75 17.7812H17.9509L17.3532 16.5859H6.64676L6.0491 17.7812H5.25C4.95877 17.7812 4.72266 18.0174 4.72266 18.3086C4.72266 18.5998 4.95877 18.8359 5.25 18.8359H18.75C19.0412 18.8359 19.2773 18.5998 19.2773 18.3086C19.2773 18.0174 19.0412 17.7812 18.75 17.7812Z" fill="url(#paint1_linear)"/>
<defs>
<linearGradient id="paint0_linear" x1="12" y1="4" x2="12" y2="18.8442" gradientUnits="userSpaceOnUse">
<stop stop-color="#FF9C00"/>
<stop offset="1" stop-color="#DF0949"/>
</linearGradient>
<linearGradient id="paint1_linear" x1="12" y1="16.5859" x2="12" y2="19.4823" gradientUnits="userSpaceOnUse">
<stop stop-color="#FF9C00"/>
<stop offset="1" stop-color="#DF0949"/>
</linearGradient>
</defs>
</svg>
