<svg width="24" height="24" viewBox="0 0 24 24" fill="none" xmlns="http://www.w3.org/2000/svg">
<mask id="mask0" mask-type="alpha" maskUnits="userSpaceOnUse" x="0" y="0" width="24" height="24">
<circle cx="12" cy="12" r="12" fill="#C4C4C4"/>
</mask>
<g mask="url(#mask0)">
<path d="M30.6364 0.0574217V23.9771L30.6249 23.9886H-7.53189V0.0574217H30.6364Z" fill="#2E4593"/>
<path d="M30.6363 21.4872V23.9767L30.6248 23.9882H26.6554L14.9422 16.6345L13.772 15.9002L12.3839 15.0398L11.925 14.7415L10.5139 13.8582L9.98619 13.5255L9.55024 13.2616L8.66687 12.6995L8.38006 12.5274L7.94412 12.2521L3.79115 9.63637L1.92117 8.4662L-7.53198 2.54651V0.0570223L-7.49757 0.0111332L-7.42873 0.0570223H-3.56257L8.38006 7.53695L9.55024 8.27117L9.85999 8.4662L11.7414 9.63637L11.925 9.76257L12.6363 10.21L13.772 10.9213L13.9671 11.036L14.9422 11.6555L15.9059 12.2521L18.4642 13.8582L20.3456 15.0398L30.6363 21.4872Z" fill="#FCF5FF"/>
<path d="M30.6364 23.9082L30.6479 24L28.0895 23.9885L14.9423 15.74L13.818 15.0402L13.7721 15.0057L12.6364 14.2945L11.9595 13.8585L10.709 13.0784L9.55033 12.3556L9.38972 12.2524L8.66697 11.805L8.38016 11.6214L5.22529 9.63671L3.35531 8.46654L-7.53189 1.64054V0L-7.49747 0.0114723L-7.42863 0.0573614L6.0054 8.46654L7.86391 9.63671L8.38016 9.95794L9.55033 10.7036L9.98628 10.979L10.709 11.4264L12.0283 12.2524L13.7721 13.3423L13.9672 13.4685L14.5981 13.8585L14.9423 14.0765L16.4681 15.0402L30.6364 23.9082Z" fill="#F42525"/>
<path d="M30.6364 0.527785V3.01727L21.9289 8.4666L20.0589 9.63677L15.906 12.2524L14.9423 12.849L13.9672 13.4685L13.7721 13.5832L13.3247 13.8586L12.6364 14.2945L11.9251 14.7419L11.4547 15.0402L9.55033 16.2333L8.38016 16.9676L-2.81678 23.9886H-7.53189V21.958L3.50445 15.0402L5.37443 13.8586L7.94422 12.2524L8.38016 11.9886L8.66697 11.805L9.55033 11.2429L9.98628 10.979L11.9251 9.76297L12.1087 9.63677L13.7721 8.60427L13.9786 8.4666L14.9423 7.87004L27.4127 0.0574217H30.3381L30.6364 0.527785Z" fill="#FCF5FF"/>
<path d="M30.5331 0.65398L18.0628 8.4666L16.1928 9.63677L14.9423 10.4284L13.9672 11.0364L13.7721 11.1626L12.0283 12.2524L10.709 13.0785L9.98628 13.5259L9.55033 13.8127L9.45856 13.8586L8.38016 14.5469L7.58858 15.0402L-6.67146 23.9886H-7.53189V22.8643L4.94995 15.0402L6.81993 13.8586L8.38016 12.8834L8.66697 12.6999L9.38972 12.2524L9.55033 12.1492L10.709 11.4264L12.6364 10.2104L13.5427 9.63677L13.7721 9.4991L14.9423 8.76488L15.4127 8.4666L28.8352 0.0574217H30.166H30.6364V0.573674L30.5331 0.65398Z" fill="#F42525"/>
<path d="M30.6479 8.46641H-7.56626V15.0285H30.6479V8.46641Z" fill="white"/>
<path d="M30.6479 9.63652H-7.56626V13.8583H30.6479V9.63652Z" fill="#F42525"/>
<path d="M13.7721 0.0574217H9.55034V23.9886H13.7721V0.0574217Z" fill="#CD002A"/>
<path d="M13.7607 15.0404H14.9308V23.9888H8.3687V15.0404H9.53887V8.4668H8.3687V0.0576258H14.9308V8.4668H13.7607V15.0404Z" fill="white"/>
<path d="M13.7838 0.0574703H9.51606V23.9886H13.7838V0.0574703Z" fill="#F42525"/>
</g>
</svg>
