<svg width="108" height="108" viewBox="0 0 108 108" fill="none" xmlns="http://www.w3.org/2000/svg">
<mask id="mask0" mask-type="alpha" maskUnits="userSpaceOnUse" x="0" y="0" width="108" height="108">
<rect width="108" height="108" fill="#F5F5F5"/>
</mask>
<g mask="url(#mask0)">
<path d="M61.0914 24.639C61.7653 24.2088 62.589 23.8376 63.3984 24.0734C64.1169 24.3458 64.3655 25.187 64.348 25.8912C64.3512 34.6764 64.3496 43.4615 64.348 52.2467C72.6583 52.2467 80.9687 52.2419 89.279 52.2483C89.9418 52.2451 90.74 52.4681 91.0013 53.1468C91.2754 53.953 90.8595 54.7735 90.4931 55.4762C88.3167 59.4816 86.0431 63.4344 83.7361 67.3649C83.051 68.2779 82.1477 69.1287 81.0085 69.4043C80.0605 69.6321 79.0791 69.6242 78.112 69.6385C75.3541 69.6481 72.5978 69.6417 69.8399 69.6433C68.6402 69.6385 67.2907 69.6943 66.3443 70.5307C65.5572 71.2827 65.6544 72.4984 65.9619 73.4511C66.6327 75.4857 67.9121 77.2367 68.8584 79.1406C67.8834 78.4874 66.9402 77.7863 66.04 77.0343C63.2391 74.5568 60.6755 71.8053 58.5087 68.7527C52.0099 59.7461 48.6482 48.7256 48.0364 37.6972C47.9296 35.2786 48.919 32.6323 51.0826 31.3624C54.4205 29.1223 57.7567 26.8822 61.0914 24.639Z" fill="#00C89F"/>
<path d="M16.0997 42.2538C16.4439 41.5321 17.3122 41.3091 18.0467 41.3218C23.0925 41.3234 28.1383 41.3218 33.1841 41.3234C34.0588 41.3409 34.9797 41.376 35.7667 41.803C36.5681 42.2363 37.172 42.9358 37.7854 43.5906C39.6272 45.6857 41.4642 47.784 43.3044 49.8791C43.4095 49.989 43.5975 50.2344 43.7441 50.0225C44.7574 48.9248 45.7165 47.776 46.7235 46.6703C47.5647 52.03 49.6375 57.1491 52.44 61.7758C56.0105 67.623 60.7026 72.7549 66.0399 77.0343C66.9401 77.7863 67.8833 78.4874 68.8584 79.1406C69.467 79.805 70.0485 80.4964 70.6332 81.1815C71.073 81.6914 71.3725 82.4291 71.0969 83.0871C70.7957 83.7403 70.0262 84.0064 69.3507 83.9968C64.2539 84.0016 59.1571 83.9968 54.0619 84C53.2064 84 52.3094 83.9761 51.5287 83.5841C50.7097 83.1603 50.0804 82.4673 49.4638 81.7981C47.6523 79.7349 45.8392 77.6716 44.0325 75.6036C43.8954 75.4395 43.7297 75.3041 43.5529 75.1878C41.6315 77.3386 39.7498 79.5262 37.8348 81.6834C37.207 82.3813 36.5633 83.1014 35.7285 83.5571C34.951 83.9649 34.0524 84 33.1952 84C28.0937 83.9968 22.9921 84.0016 17.8921 83.9984C17.1592 84.0191 16.2877 83.7068 16.0567 82.9437C15.8337 82.1646 16.3069 81.4412 16.8071 80.8932C22.0983 74.8086 27.3974 68.7303 32.7173 62.6712C27.3895 56.5357 22.0091 50.4463 16.6908 44.3028C16.1937 43.7642 15.8145 42.9867 16.0997 42.2538Z" fill="#002CBA"/>
</g>
</svg>
